<svg xmlns="http://www.w3.org/2000/svg" viewBox="0 0 800 400" width="100%" height="100%">
  <defs><linearGradient id="bg" x1="0%" y1="0%" x2="100%" y2="100%"><stop offset="0%" style="stop-color:#6c757d;stop-opacity:1"/><stop offset="100%" style="stop-color:#adb5bd;stop-opacity:1"/></linearGradient></defs>
  <rect width="800" height="400" fill="url(#bg)"/>
  <!-- 迷雾 -->
  <ellipse cx="241" cy="150" rx="200" ry="80" fill="white" opacity="0.08"/>
  <ellipse cx="218" cy="200" rx="180" ry="60" fill="white" opacity="0.06"/>
  <ellipse cx="90" cy="100" rx="150" ry="70" fill="white" opacity="0.07"/>
  <!-- 岔路口 -->
  <path d="M 400 350 L 400 250" stroke="white" stroke-width="4" opacity="0.3"/>
  <path d="M 400 250 Q 200 220 100 280" stroke="white" stroke-width="3" opacity="0.2" fill="none"/>
  <path d="M 400 250 Q 600 220 700 280" stroke="white" stroke-width="3" opacity="0.2" fill="none"/>
  <!-- 思考的人 -->
  <g transform="translate(370, 200)" opacity="0.5">
    <circle cx="30" cy="0" r="18" fill="white"/>
    <path d="M 30 18 L 30 70" stroke="white" stroke-width="12" stroke-linecap="round"/>
    <path d="M 30 35 L 10 55" stroke="white" stroke-width="8" stroke-linecap="round"/>
    <path d="M 30 35 L 50 25" stroke="white" stroke-width="8" stroke-linecap="round"/>
  </g>
  <!-- 问号 -->
  <text x="460" y="180" font-size="60" font-weight="bold" fill="white" opacity="0.2">?</text>
  <text x="320" y="150" font-size="40" font-weight="bold" fill="white" opacity="0.15">?</text>
  <g transform="translate(660, 40)"><rect width="90" height="32" rx="16" fill="white" opacity="0.85"/><text x="45" y="21" text-anchor="middle" font-size="14" font-weight="bold" fill="#6c757d">2013</text></g>
  <text x="400" y="365" text-anchor="middle" font-size="16" font-weight="bold" fill="white" opacity="0.95">考场沉思</text>
  <text x="400" y="385" text-anchor="middle" font-size="11" fill="white" opacity="0.6">Dragon_SZ Blog</text>
</svg>