<svg xmlns="http://www.w3.org/2000/svg" viewBox="0 0 800 400" width="100%" height="100%">
  <defs>
    <linearGradient id="bg" x1="0%" y1="0%" x2="100%" y2="100%">
      <stop offset="0%" style="stop-color:#11998e;stop-opacity:1" />
      <stop offset="100%" style="stop-color:#38ef7d;stop-opacity:1" />
    </linearGradient>
  </defs>
  
  <rect width="800" height="400" fill="url(#bg)"/>
  
    <g transform="translate(350, 100)" opacity="0.7">
      <circle cx="50" cy="30" r="25" fill="white"/>
      <path d="M 50 55 L 50 130" stroke="white" stroke-width="18" stroke-linecap="round"/>
      <path d="M 50 80 L 20 110" stroke="white" stroke-width="14" stroke-linecap="round"/>
      <path d="M 50 80 L 80 110" stroke="white" stroke-width="14" stroke-linecap="round"/>
      <path d="M 50 130 L 25 180" stroke="white" stroke-width="16" stroke-linecap="round"/>
      <path d="M 50 130 L 75 180" stroke="white" stroke-width="16" stroke-linecap="round"/>
    </g>
    <polygon points="0,280 80,170 160,230 280,140 400,210 520,150 650,200 800,180 800,280" fill="white" opacity="0.15"/>
    <polygon points="0,300 120,210 240,260 360,190 480,240 600,220 800,250 800,300" fill="white" opacity="0.1"/>
    <circle cx="100" cy="60" r="25" fill="white" opacity="0.08"/>
    <circle cx="720" cy="300" r="45" fill="white" opacity="0.06"/>
  
  <rect x="0" y="310" width="800" height="90" fill="white" opacity="0.08"/>
  
  <g transform="translate(650, 45)">
    <rect width="100" height="36" rx="18" fill="white" opacity="0.85"/>
    <text x="50" y="24" text-anchor="middle" font-size="16" font-weight="bold" fill="#11998e">2013</text>
  </g>
  
  <text x="400" y="360" text-anchor="middle" font-size="18" font-weight="bold" fill="white" opacity="0.9">山区孩子吃着免费午餐的笑脸</text>
  <text x="400" y="385" text-anchor="middle" font-size="11" fill="white" opacity="0.5">Dragon_SZ Blog</text>
</svg>