<svg xmlns="http://www.w3.org/2000/svg" viewBox="0 0 800 400" width="100%" height="100%">
  <defs>
    <linearGradient id="bg" x1="0%" y1="0%" x2="0%" y2="100%">
      <stop offset="0%" style="stop-color:#0c1445;stop-opacity:1"/>
      <stop offset="100%" style="stop-color:#1a237e;stop-opacity:1"/>
    </linearGradient>
    <radialGradient id="desklamp" cx="50%" cy="0%" r="60%">
      <stop offset="0%" style="stop-color:#fff3cd;stop-opacity:0.5"/>
      <stop offset="100%" style="stop-color:#fff3cd;stop-opacity:0"/>
    </radialGradient>
  </defs>
  <rect width="800" height="400" fill="url(#bg)"/>
  <!-- 书架背景 -->
  <g opacity="0.2">
    <rect x="0" y="0" width="800" height="80" fill="white" opacity="0.1"/>
    <rect x="20" y="10" width="30" height="60" fill="white" opacity="0.15"/>
    <rect x="60" y="15" width="25" height="55" fill="white" opacity="0.12"/>
    <rect x="95" y="8" width="28" height="62" fill="white" opacity="0.14"/>
    <rect x="135" y="12" width="22" height="58" fill="white" opacity="0.13"/>
    <rect x="600" y="10" width="30" height="60" fill="white" opacity="0.15"/>
    <rect x="640" y="15" width="25" height="55" fill="white" opacity="0.12"/>
    <rect x="675" y="8" width="28" height="62" fill="white" opacity="0.14"/>
    <rect x="715" y="12" width="22" height="58" fill="white" opacity="0.13"/>
  </g>
  <!-- 桌子 -->
  <rect x="200" y="200" width="400" height="15" rx="3" fill="white" opacity="0.3"/>
  <!-- 台灯 -->
  <circle cx="350" cy="150" r="80" fill="url(#desklamp)"/>
  <g transform="translate(340, 100)" opacity="0.6">
    <rect x="-3" y="0" width="6" height="50" fill="white"/>
    <ellipse cx="0" cy="55" rx="25" ry="8" fill="white"/>
  </g>
  <!-- 书本 -->
  <g transform="translate(280, 185)" opacity="0.5">
    <rect x="0" y="0" width="50" height="15" rx="2" fill="#FF6B6B"/>
    <rect x="55" y="-3" width="45" height="18" rx="2" fill="#4facfe"/>
    <rect x="105" y="2" width="40" height="13" rx="2" fill="#FFE66D"/>
  </g>
  <!-- 笔记本电脑 -->
  <rect x="420" y="175" width="100" height="25" rx="3" fill="white" opacity="0.4"/>
  <rect x="430" y="165" width="80" height="15" rx="2" fill="white" opacity="0.35"/>
  <!-- 坐着的人 -->
  <g transform="translate(370, 130)" opacity="0.4">
    <circle cx="30" cy="0" r="18" fill="white"/>
    <path d="M 30 18 L 30 70" stroke="white" stroke-width="14" stroke-linecap="round"/>
  </g>
  <g transform="translate(660, 40)"><rect width="90" height="32" rx="16" fill="white" opacity="0.85"/><text x="45" y="21" text-anchor="middle" font-size="14" font-weight="bold" fill="#4facfe">2013</text></g>
  <text x="400" y="365" text-anchor="middle" font-size="16" font-weight="bold" fill="white" opacity="0.95">自习室里的备考身影</text>
  <text x="400" y="385" text-anchor="middle" font-size="11" fill="white" opacity="0.6">Dragon_SZ Blog</text>
</svg>