<svg xmlns="http://www.w3.org/2000/svg" viewBox="0 0 800 400" width="100%" height="100%">
  <defs><linearGradient id="bg" x1="0%" y1="0%" x2="100%" y2="100%"><stop offset="0%" style="stop-color:#f093fb;stop-opacity:1"/><stop offset="50%" style="stop-color:#f5576c;stop-opacity:1"/><stop offset="100%" style="stop-color:#ffecd2;stop-opacity:1"/></linearGradient></defs>
  <rect width="800" height="400" fill="url(#bg)"/>
  <!-- 樱花树 -->
  <g transform="translate(200, 150)">
    <rect x="-10" y="100" width="20" height="100" fill="#8B7355"/>
    <circle cx="0" cy="60" r="70" fill="#FFB7C5" opacity="0.6"/>
    <circle cx="-40" cy="90" r="50" fill="#FFB7C5" opacity="0.5"/>
    <circle cx="40" cy="80" r="55" fill="#FFB7C5" opacity="0.5"/>
    <circle cx="-20" cy="110" r="45" fill="#FFB7C5" opacity="0.4"/>
    <circle cx="30" cy="105" r="48" fill="#FFB7C5" opacity="0.4"/>
  </g>
  <!-- 飘落的花瓣 -->
  <g fill="#FFB7C5" opacity="0.6">
    <ellipse cx="300" cy="200" rx="5" ry="3" transform="rotate(30,300,200)"/>
    <ellipse cx="400" cy="180" rx="4" ry="2.5" transform="rotate(-20,400,180)"/>
    <ellipse cx="500" cy="220" rx="5" ry="3" transform="rotate(45,500,220)"/>
    <ellipse cx="350" cy="260" rx="4" ry="2.5" transform="rotate(-35,350,260)"/>
    <ellipse cx="600" cy="240" rx="5" ry="3" transform="rotate(15,600,240)"/>
    <ellipse cx="450" cy="300" rx="4" ry="2.5" transform="rotate(-45,450,300)"/>
  </g>
  <!-- 草地 -->
  <ellipse cx="400" cy="360" rx="450" ry="60" fill="#4a7c59" opacity="0.4"/>
  <g transform="translate(660, 40)"><rect width="90" height="32" rx="16" fill="white" opacity="0.85"/><text x="45" y="21" text-anchor="middle" font-size="14" font-weight="bold" fill="#f5576c">2013</text></g>
  <text x="400" y="365" text-anchor="middle" font-size="16" font-weight="bold" fill="white" opacity="0.95">春天校园里盛开的花朵</text>
  <text x="400" y="385" text-anchor="middle" font-size="11" fill="white" opacity="0.6">Dragon_SZ Blog</text>
</svg>