<svg xmlns="http://www.w3.org/2000/svg" viewBox="0 0 800 400" width="100%" height="100%">
  <defs>
    <linearGradient id="sky" x1="0%" y1="0%" x2="0%" y2="100%">
      <stop offset="0%" style="stop-color:#87ceeb;stop-opacity:1"/>
      <stop offset="100%" style="stop-color:#006994;stop-opacity:1"/>
    </linearGradient>
  </defs>
  <rect width="800" height="200" fill="url(#sky)"/>
  <!-- 太阳 -->
  <circle cx="400" cy="120" r="50" fill="#FFE66D" opacity="0.8"/>
  <circle cx="400" cy="120" r="70" fill="#FFE66D" opacity="0.2"/>
  <!-- 海鸥 -->
  <g opacity="0.5">
    <path d="M 150 60 Q 160 50 170 60 Q 180 50 190 60" stroke="white" stroke-width="2" fill="none"/>
    <path d="M 600 80 Q 610 70 620 80 Q 630 70 640 80" stroke="white" stroke-width="2" fill="none"/>
  </g>
  <!-- 海 -->
  <rect x="0" y="200" width="800" height="200" fill="#006994"/>
  <!-- 波浪 -->
  <path d="M 0 220 Q 100 210 200 220 T 400 220 T 600 220 T 800 220" stroke="white" stroke-width="2" fill="none" opacity="0.3"/>
  <path d="M 0 250 Q 100 240 200 250 T 400 250 T 600 250 T 800 250" stroke="white" stroke-width="2" fill="none" opacity="0.25"/>
  <path d="M 0 280 Q 100 270 200 280 T 400 280 T 600 280 T 800 280" stroke="white" stroke-width="2" fill="none" opacity="0.2"/>
  <path d="M 0 310 Q 100 300 200 310 T 400 310 T 600 310 T 800 310" stroke="white" stroke-width="2" fill="none" opacity="0.15"/>
  <path d="M 0 340 Q 100 330 200 340 T 400 340 T 600 340 T 800 340" stroke="white" stroke-width="2" fill="none" opacity="0.1"/>
  <!-- 帆船 -->
  <g transform="translate(350, 220)" opacity="0.6">
    <polygon points="0,0 20,-40 40,0" fill="white"/>
    <path d="M -10 0 L 50 0 L 45 10 L -5 10 Z" fill="#8B4513"/>
  </g>
  <g transform="translate(660, 40)"><rect width="90" height="32" rx="16" fill="white" opacity="0.85"/><text x="45" y="21" text-anchor="middle" font-size="14" font-weight="bold" fill="#006994">2014</text></g>
  <text x="400" y="365" text-anchor="middle" font-size="16" font-weight="bold" fill="white" opacity="0.95">海边漫步的脚印</text>
  <text x="400" y="385" text-anchor="middle" font-size="11" fill="white" opacity="0.6">Dragon_SZ Blog</text>
</svg>