<svg xmlns="http://www.w3.org/2000/svg" viewBox="0 0 800 400" width="100%" height="100%">
  <defs><linearGradient id="bg" x1="0%" y1="0%" x2="100%" y2="100%"><stop offset="0%" style="stop-color:#fa709a;stop-opacity:1"/><stop offset="100%" style="stop-color:#fee140;stop-opacity:1"/></linearGradient></defs>
  <rect width="800" height="400" fill="url(#bg)"/>
  <g transform="translate(300, 30)">
    <rect width="200" height="45" rx="22" fill="white" opacity="0.9"/>
    <text x="100" y="28" text-anchor="middle" font-size="13" font-weight="bold" fill="#fa709a">Start</text>
    <polygon points="100,55 92,47 108,47" fill="white" opacity="0.6"/>
    <rect y="65" width="200" height="45" rx="8" fill="white" opacity="0.8"/>
    <text x="100" y="92" text-anchor="middle" font-size="12" fill="#333">Process A</text>
    <polygon points="100,120 92,112 108,112" fill="white" opacity="0.6"/>
    <polygon points="100,130 180,160 100,190 20,160" fill="white" opacity="0.75"/>
    <text x="100" y="165" text-anchor="middle" font-size="11" fill="#333">Condition</text>
    <polygon points="100,200 92,192 108,192" fill="white" opacity="0.6"/>
    <rect y="210" width="200" height="45" rx="8" fill="white" opacity="0.8"/>
    <text x="100" y="237" text-anchor="middle" font-size="12" fill="#333">Process B</text>
    <polygon points="100,265 92,257 108,257" fill="white" opacity="0.6"/>
    <rect y="275" width="200" height="45" rx="22" fill="white" opacity="0.9"/>
    <text x="100" y="303" text-anchor="middle" font-size="13" font-weight="bold" fill="#fa709a">End</text>
  </g>
  <g transform="translate(660, 40)"><rect width="90" height="32" rx="16" fill="white" opacity="0.85"/><text x="45" y="21" text-anchor="middle" font-size="14" font-weight="bold" fill="#fa709a">2014</text></g>
  <text x="400" y="365" text-anchor="middle" font-size="16" font-weight="bold" fill="white" opacity="0.95">Servlet请求处理流程</text>
  <text x="400" y="385" text-anchor="middle" font-size="11" fill="white" opacity="0.6">Dragon_SZ Blog</text>
</svg>