<svg xmlns="http://www.w3.org/2000/svg" viewBox="0 0 800 400" width="100%" height="100%">
  <defs><linearGradient id="bg" x1="0%" y1="0%" x2="100%" y2="100%"><stop offset="0%" style="stop-color:#667eea;stop-opacity:1"/><stop offset="100%" style="stop-color:#764ba2;stop-opacity:1"/></linearGradient></defs>
  <rect width="800" height="400" fill="url(#bg)"/>
  <ellipse cx="200" cy="350" rx="300" ry="100" fill="white" opacity="0.08"/>
  <ellipse cx="600" cy="360" rx="250" ry="80" fill="white" opacity="0.06"/>
  <g opacity="0.3">
    <g transform="translate(150, 260)">
      <rect x="-4" y="0" width="8" height="50" fill="white"/>
      <circle cx="0" cy="-8" r="28" fill="white"/><circle cx="-18" cy="8" r="22" fill="white"/><circle cx="18" cy="8" r="22" fill="white"/>
    </g>
    <g transform="translate(400, 270)">
      <rect x="-3" y="0" width="6" height="40" fill="white"/>
      <circle cx="0" cy="-6" r="22" fill="white"/><circle cx="-14" cy="6" r="18" fill="white"/><circle cx="14" cy="6" r="18" fill="white"/>
    </g>
    <g transform="translate(650, 255)">
      <rect x="-5" y="0" width="10" height="55" fill="white"/>
      <circle cx="0" cy="-10" r="30" fill="white"/><circle cx="-20" cy="8" r="24" fill="white"/><circle cx="20" cy="8" r="24" fill="white"/>
    </g>
  </g>
  <circle cx="150" cy="80" r="25" fill="white" opacity="0.06"/>
  <circle cx="650" cy="120" r="35" fill="white" opacity="0.05"/>
  <g transform="translate(660, 40)"><rect width="90" height="32" rx="16" fill="white" opacity="0.85"/><text x="45" y="21" text-anchor="middle" font-size="14" font-weight="bold" fill="#667eea">2015</text></g>
  <text x="400" y="365" text-anchor="middle" font-size="16" font-weight="bold" fill="white" opacity="0.95">城市夜景中的程序员</text>
  <text x="400" y="385" text-anchor="middle" font-size="11" fill="white" opacity="0.6">Dragon_SZ Blog</text>
</svg>