<svg xmlns="http://www.w3.org/2000/svg" viewBox="0 0 800 400" width="100%" height="100%">
  <defs><linearGradient id="bg" x1="0%" y1="0%" x2="100%" y2="100%"><stop offset="0%" style="stop-color:#FF6B6B;stop-opacity:1"/><stop offset="100%" style="stop-color:#FFE66D;stop-opacity:1"/></linearGradient></defs>
  <rect width="800" height="400" fill="url(#bg)"/>
  <!-- 向日葵1 -->
  <g transform="translate(200, 200)" opacity="0.7">
    <line x1="0" y1="0" x2="0" y2="120" stroke="#4a7c59" stroke-width="6"/>
    <ellipse cx="0" cy="100" rx="20" ry="10" fill="#4a7c59" opacity="0.6"/>
    <g>
      <ellipse cx="0" cy="-25" rx="12" ry="25" fill="#FFE66D"/>
      <ellipse cx="0" cy="-25" rx="12" ry="25" fill="#FFE66D" transform="rotate(30)"/>
      <ellipse cx="0" cy="-25" rx="12" ry="25" fill="#FFE66D" transform="rotate(60)"/>
      <ellipse cx="0" cy="-25" rx="12" ry="25" fill="#FFE66D" transform="rotate(90)"/>
      <ellipse cx="0" cy="-25" rx="12" ry="25" fill="#FFE66D" transform="rotate(120)"/>
      <ellipse cx="0" cy="-25" rx="12" ry="25" fill="#FFE66D" transform="rotate(150)"/>
    </g>
    <circle cx="0" cy="0" r="15" fill="#8B4513"/>
  </g>
  <!-- 向日葵2 -->
  <g transform="translate(400, 180) scale(0.8)" opacity="0.6">
    <line x1="0" y1="0" x2="0" y2="120" stroke="#4a7c59" stroke-width="6"/>
    <g>
      <ellipse cx="0" cy="-25" rx="12" ry="25" fill="#FFE66D"/>
      <ellipse cx="0" cy="-25" rx="12" ry="25" fill="#FFE66D" transform="rotate(30)"/>
      <ellipse cx="0" cy="-25" rx="12" ry="25" fill="#FFE66D" transform="rotate(60)"/>
      <ellipse cx="0" cy="-25" rx="12" ry="25" fill="#FFE66D" transform="rotate(90)"/>
      <ellipse cx="0" cy="-25" rx="12" ry="25" fill="#FFE66D" transform="rotate(120)"/>
      <ellipse cx="0" cy="-25" rx="12" ry="25" fill="#FFE66D" transform="rotate(150)"/>
    </g>
    <circle cx="0" cy="0" r="15" fill="#8B4513"/>
  </g>
  <!-- 向日葵3 -->
  <g transform="translate(600, 210) scale(0.7)" opacity="0.5">
    <line x1="0" y1="0" x2="0" y2="120" stroke="#4a7c59" stroke-width="6"/>
    <g>
      <ellipse cx="0" cy="-25" rx="12" ry="25" fill="#FFE66D"/>
      <ellipse cx="0" cy="-25" rx="12" ry="25" fill="#FFE66D" transform="rotate(30)"/>
      <ellipse cx="0" cy="-25" rx="12" ry="25" fill="#FFE66D" transform="rotate(60)"/>
      <ellipse cx="0" cy="-25" rx="12" ry="25" fill="#FFE66D" transform="rotate(90)"/>
      <ellipse cx="0" cy="-25" rx="12" ry="25" fill="#FFE66D" transform="rotate(120)"/>
      <ellipse cx="0" cy="-25" rx="12" ry="25" fill="#FFE66D" transform="rotate(150)"/>
    </g>
    <circle cx="0" cy="0" r="15" fill="#8B4513"/>
  </g>
  <!-- 地面 -->
  <ellipse cx="400" cy="350" rx="400" ry="60" fill="#4a7c59" opacity="0.3"/>
  <g transform="translate(660, 40)"><rect width="90" height="32" rx="16" fill="white" opacity="0.85"/><text x="45" y="21" text-anchor="middle" font-size="14" font-weight="bold" fill="#FF6B6B">2015</text></g>
  <text x="400" y="365" text-anchor="middle" font-size="16" font-weight="bold" fill="white" opacity="0.95">向日葵与和好</text>
  <text x="400" y="385" text-anchor="middle" font-size="11" fill="white" opacity="0.6">Dragon_SZ Blog</text>
</svg>