<svg xmlns="http://www.w3.org/2000/svg" viewBox="0 0 800 400" width="100%" height="100%">
  <defs><linearGradient id="bg" x1="0%" y1="0%" x2="100%" y2="100%"><stop offset="0%" style="stop-color:#6a11cb;stop-opacity:1"/><stop offset="100%" style="stop-color:#2575fc;stop-opacity:1"/></linearGradient></defs>
  <rect width="800" height="400" fill="url(#bg)"/>
  <!-- 投影屏幕 -->
  <rect x="150" y="40" width="500" height="160" rx="5" fill="white" opacity="0.15"/>
  <rect x="160" y="50" width="480" height="140" fill="white" opacity="0.1"/>
  <!-- PPT内容示意 -->
  <rect x="180" y="65" width="200" height="12" rx="3" fill="white" opacity="0.4"/>
  <rect x="180" y="85" width="160" height="8" rx="2" fill="white" opacity="0.25"/>
  <rect x="180" y="100" width="140" height="8" rx="2" fill="white" opacity="0.25"/>
  <rect x="180" y="115" width="170" height="8" rx="2" fill="white" opacity="0.25"/>
  <!-- 图表示意 -->
  <rect x="420" y="70" width="80" height="100" rx="3" fill="white" opacity="0.2"/>
  <rect x="430" y="140" width="20" height="25" fill="white" opacity="0.4"/>
  <rect x="455" y="120" width="20" height="45" fill="white" opacity="0.5"/>
  <rect x="480" y="100" width="20" height="65" fill="white" opacity="0.6"/>
  <!-- 演讲台 -->
  <rect x="350" y="230" width="100" height="80" rx="5" fill="white" opacity="0.2"/>
  <!-- 掌声/点赞 -->
  <g transform="translate(600, 250)" opacity="0.4">
    <text font-size="40">👏</text>
  </g>
  <!-- 奖杯 -->
  <g transform="translate(120, 250)" opacity="0.5">
    <path d="M 30 0 L 30 50 L 10 60 L 50 60 L 30 50" fill="#FFE66D"/>
    <ellipse cx="30" cy="0" rx="20" ry="25" fill="none" stroke="#FFE66D" stroke-width="4"/>
    <rect x="20" y="60" width="20" height="10" fill="#FFE66D"/>
  </g>
  <g transform="translate(660, 40)"><rect width="90" height="32" rx="16" fill="white" opacity="0.85"/><text x="45" y="21" text-anchor="middle" font-size="14" font-weight="bold" fill="#6a11cb">2015</text></g>
  <text x="400" y="365" text-anchor="middle" font-size="16" font-weight="bold" fill="white" opacity="0.95">深夜空荡荡的办公室</text>
  <text x="400" y="385" text-anchor="middle" font-size="11" fill="white" opacity="0.6">Dragon_SZ Blog</text>
</svg>