<svg xmlns="http://www.w3.org/2000/svg" viewBox="0 0 800 400" width="100%" height="100%">
  <defs>
    <linearGradient id="bg" x1="0%" y1="0%" x2="100%" y2="100%">
      <stop offset="0%" style="stop-color:#6a11cb;stop-opacity:1"/>
      <stop offset="100%" style="stop-color:#2575fc;stop-opacity:1"/>
    </linearGradient>
    <pattern id="codeGrid" width="40" height="40" patternUnits="userSpaceOnUse">
      <path d="M 40 0 L 0 0 0 40" fill="none" stroke="white" stroke-width="0.5" opacity="0.1"/>
    </pattern>
  </defs>
  <rect width="800" height="400" fill="url(#bg)"/>
  <rect width="800" height="400" fill="url(#codeGrid)"/>
  <!-- 代码编辑器窗口 -->
  <g transform="translate(120, 60)">
    <rect width="560" height="240" rx="10" fill="white" opacity="0.9"/>
    <rect width="560" height="35" rx="10" fill="#f0f0f0"/>
    <circle cx="25" cy="17" r="7" fill="#ff5f56"/>
    <circle cx="48" cy="17" r="7" fill="#ffbd2e"/>
    <circle cx="71" cy="17" r="7" fill="#27c93f"/>
    <!-- 代码行 -->
    <g font-family="monospace" font-size="11" opacity="0.6">
      <rect x="20" y="50" width="120" height="8" rx="2" fill="#c678dd"/>
      <rect x="150" y="50" width="80" height="8" rx="2" fill="#61afef"/>
      <rect x="20" y="68" width="40" height="8" rx="2" fill="#e5c07b"/>
      <rect x="70" y="68" width="150" height="8" rx="2" fill="#98c379"/>
      <rect x="20" y="86" width="100" height="8" rx="2" fill="#c678dd"/>
      <rect x="130" y="86" width="90" height="8" rx="2" fill="#98c379"/>
      <rect x="20" y="104" width="60" height="8" rx="2" fill="#e06c75"/>
      <rect x="20" y="122" width="30" height="8" rx="2" fill="#56b6c2"/>
      <rect x="20" y="150" width="140" height="8" rx="2" fill="#61afef"/>
      <rect x="20" y="168" width="90" height="8" rx="2" fill="#e5c07b"/>
      <rect x="120" y="168" width="110" height="8" rx="2" fill="#98c379"/>
      <rect x="20" y="186" width="50" height="8" rx="2" fill="#c678dd"/>
    </g>
  </g>
  <!-- 代码符号 -->
  <g opacity="0.12" font-family="monospace" font-size="30" fill="white">
    <text x="50" y="350">&lt;/&gt;</text>
    <text x="650" y="80">{}</text>
    <text x="580" y="350">[]</text>
  </g>
  <g transform="translate(660, 40)"><rect width="90" height="32" rx="16" fill="white" opacity="0.85"/><text x="45" y="21" text-anchor="middle" font-size="14" font-weight="bold" fill="#6a11cb">2015</text></g>
  <text x="400" y="365" text-anchor="middle" font-size="16" font-weight="bold" fill="white" opacity="0.95">PHP魔术方法isset和unset</text>
  <text x="400" y="385" text-anchor="middle" font-size="11" fill="white" opacity="0.6">Dragon_SZ Blog</text>
</svg>