<svg xmlns="http://www.w3.org/2000/svg" viewBox="0 0 800 400" width="100%" height="100%">
  <defs>
    <linearGradient id="bg" x1="0%" y1="0%" x2="100%" y2="100%">
      <stop offset="0%" style="stop-color:#FF6B6B;stop-opacity:1"/>
      <stop offset="100%" style="stop-color:#FFE66D;stop-opacity:1"/>
    </linearGradient>
  </defs>
  <rect width="800" height="400" fill="url(#bg)"/>
  <!-- 飘落的爱心 -->
  <g opacity="0.3">
    <path d="M 100 50 A 12 12 0 0 0 76 50 C 76 62 100 74 100 74 C 100 74 124 62 124 50 A 12 12 0 0 0 100 50 Z" fill="white"/>
    <path d="M 300 80 A 8 8 0 0 0 284 80 C 284 88 300 96 300 96 C 300 96 316 88 316 80 A 8 8 0 0 0 300 80 Z" fill="white"/>
    <path d="M 550 40 A 10 10 0 0 0 530 40 C 530 50 550 60 550 60 C 550 60 570 50 570 40 A 10 10 0 0 0 550 40 Z" fill="white"/>
    <path d="M 700 120 A 7 7 0 0 0 686 120 C 686 127 700 134 700 134 C 700 134 714 127 714 120 A 7 7 0 0 0 700 120 Z" fill="white"/>
    <path d="M 200 200 A 9 9 0 0 0 182 200 C 182 209 200 218 200 218 C 200 218 218 209 218 200 A 9 9 0 0 0 200 200 Z" fill="white"/>
    <path d="M 600 220 A 11 11 0 0 0 578 220 C 578 231 600 242 600 242 C 600 242 622 231 622 220 A 11 11 0 0 0 600 220 Z" fill="white"/>
  </g>
  <!-- 咖啡馆/相遇场景 -->
  <g transform="translate(250, 140)" opacity="0.4">
    <!-- 桌子 -->
    <ellipse cx="150" cy="120" rx="100" ry="20" fill="white"/>
    <rect x="145" y="120" width="10" height="60" fill="white"/>
    <!-- 两杯咖啡 -->
    <ellipse cx="100" cy="100" rx="15" ry="10" fill="white" opacity="0.7"/>
    <ellipse cx="200" cy="100" rx="15" ry="10" fill="white" opacity="0.7"/>
    <!-- 蒸汽 -->
    <path d="M 95 90 Q 100 80 95 70" stroke="white" stroke-width="2" fill="none" opacity="0.5"/>
    <path d="M 195 90 Q 200 80 195 70" stroke="white" stroke-width="2" fill="none" opacity="0.5"/>
  </g>
  <!-- 两个人影 -->
  <g opacity="0.5">
    <circle cx="330" cy="180" r="16" fill="white"/>
    <path d="M 330 196 L 330 260" stroke="white" stroke-width="12" stroke-linecap="round"/>
    <circle cx="430" cy="185" r="15" fill="white"/>
    <path d="M 430 200 L 430 260" stroke="white" stroke-width="11" stroke-linecap="round"/>
    <!-- 牵手 -->
    <path d="M 330 220 Q 380 230 430 220" stroke="white" stroke-width="3" fill="none" opacity="0.6"/>
  </g>
  <g transform="translate(660, 40)"><rect width="90" height="32" rx="16" fill="white" opacity="0.85"/><text x="45" y="21" text-anchor="middle" font-size="14" font-weight="bold" fill="#FF6B6B">2015</text></g>
  <text x="400" y="365" text-anchor="middle" font-size="16" font-weight="bold" fill="white" opacity="0.95">爱情的力量</text>
  <text x="400" y="385" text-anchor="middle" font-size="11" fill="white" opacity="0.6">Dragon_SZ Blog</text>
</svg>