<svg xmlns="http://www.w3.org/2000/svg" viewBox="0 0 800 400" width="100%" height="100%">
  <defs>
    <linearGradient id="bg" x1="0%" y1="0%" x2="100%" y2="100%">
      <stop offset="0%" style="stop-color:#667eea;stop-opacity:1" />
      <stop offset="100%" style="stop-color:#764ba2;stop-opacity:1" />
    </linearGradient>
  </defs>
  
  <rect width="800" height="400" fill="url(#bg)"/>
  
    <g transform="translate(350, 100)" opacity="0.7">
      <circle cx="50" cy="30" r="25" fill="white"/>
      <path d="M 50 55 L 50 130" stroke="white" stroke-width="18" stroke-linecap="round"/>
      <path d="M 50 80 L 20 110" stroke="white" stroke-width="14" stroke-linecap="round"/>
      <path d="M 50 80 L 80 110" stroke="white" stroke-width="14" stroke-linecap="round"/>
      <path d="M 50 130 L 25 180" stroke="white" stroke-width="16" stroke-linecap="round"/>
      <path d="M 50 130 L 75 180" stroke="white" stroke-width="16" stroke-linecap="round"/>
    </g>
    <rect x="250" y="240" width="300" height="12" fill="white" opacity="0.25" rx="2"/>
    <rect x="270" y="252" width="12" height="60" fill="white" opacity="0.2"/>
    <rect x="518" y="252" width="12" height="60" fill="white" opacity="0.2"/>
    <rect x="290" y="222" width="50" height="18" fill="white" opacity="0.3" rx="2"/>
    <rect x="350" y="218" width="45" height="22" fill="white" opacity="0.25" rx="2"/>
    <rect x="410" y="215" width="80" height="25" fill="white" opacity="0.35" rx="2"/>
    <circle cx="100" cy="60" r="25" fill="white" opacity="0.08"/>
    <circle cx="720" cy="300" r="45" fill="white" opacity="0.06"/>
  
  <rect x="0" y="310" width="800" height="90" fill="white" opacity="0.08"/>
  
  <g transform="translate(650, 45)">
    <rect width="100" height="36" rx="18" fill="white" opacity="0.85"/>
    <text x="50" y="24" text-anchor="middle" font-size="16" font-weight="bold" fill="#667eea">2018</text>
  </g>
  
  <text x="400" y="360" text-anchor="middle" font-size="18" font-weight="bold" fill="white" opacity="0.9">年末一个人坐在桌前写总结</text>
  <text x="400" y="385" text-anchor="middle" font-size="11" fill="white" opacity="0.5">Dragon_SZ Blog</text>
</svg>