<svg xmlns="http://www.w3.org/2000/svg" viewBox="0 0 800 400" width="100%" height="100%">
  <defs>
    <radialGradient id="scan" cx="50%" cy="40%" r="60%">
      <stop offset="0%" style="stop-color:#1a3a5c;stop-opacity:1"/>
      <stop offset="100%" style="stop-color:#0a1628;stop-opacity:1"/>
    </radialGradient>
  </defs>
  <rect width="800" height="400" fill="url(#scan)"/>
  <!-- 扇形扫描区域 -->
  <path d="M 400 50 Q 200 150 150 350 L 650 350 Q 600 150 400 50 Z" fill="#0d2137" opacity="0.8"/>
  <!-- 扫描线 -->
  <g opacity="0.15" stroke="#4facfe" stroke-width="0.5">
    <line x1="400" y1="50" x2="200" y2="350"/>
    <line x1="400" y1="50" x2="300" y2="350"/>
    <line x1="400" y1="50" x2="400" y2="350"/>
    <line x1="400" y1="50" x2="500" y2="350"/>
    <line x1="400" y1="50" x2="600" y2="350"/>
  </g>
  <!-- 胎儿轮廓示意 -->
  <ellipse cx="400" cy="200" rx="60" ry="80" fill="none" stroke="#4facfe" stroke-width="2" opacity="0.5"/>
  <circle cx="380" cy="160" r="25" fill="none" stroke="#4facfe" stroke-width="1.5" opacity="0.4"/>
  <!-- 数据标注 -->
  <g font-family="monospace" font-size="10" fill="#4facfe" opacity="0.6">
    <text x="50" y="30">HR: 140bpm</text>
    <text x="50" y="45">GA: 24w3d</text>
    <text x="600" y="30">BPD: 6.2cm</text>
    <text x="600" y="45">FL: 4.5cm</text>
  </g>
  <!-- 边框 -->
  <rect x="10" y="10" width="780" height="380" fill="none" stroke="#4facfe" stroke-width="1" opacity="0.3" rx="5"/>
  <g transform="translate(660, 40)"><rect width="90" height="32" rx="16" fill="white" opacity="0.85"/><text x="45" y="21" text-anchor="middle" font-size="14" font-weight="bold" fill="#4facfe">2020</text></g>
  <text x="400" y="365" text-anchor="middle" font-size="16" font-weight="bold" fill="white" opacity="0.95">孕检B超屏幕上胎儿的影像</text>
  <text x="400" y="385" text-anchor="middle" font-size="11" fill="white" opacity="0.6">Dragon_SZ Blog</text>
</svg>