<svg xmlns="http://www.w3.org/2000/svg" viewBox="0 0 800 400" width="100%" height="100%">
  <defs>
    <linearGradient id="bg" x1="0%" y1="0%" x2="100%" y2="100%">
      <stop offset="0%" style="stop-color:#ffecd2;stop-opacity:1"/>
      <stop offset="50%" style="stop-color:#fcb69f;stop-opacity:1"/>
      <stop offset="100%" style="stop-color:#ff9a9e;stop-opacity:1"/>
    </linearGradient>
    <radialGradient id="sun" cx="80%" cy="20%" r="30%">
      <stop offset="0%" style="stop-color:#fff7cd;stop-opacity:0.5"/>
      <stop offset="100%" style="stop-color:#fff7cd;stop-opacity:0"/>
    </radialGradient>
  </defs>
  <rect width="800" height="400" fill="url(#bg)"/>
  <circle cx="650" cy="80" r="100" fill="url(#sun)"/>
  <!-- 太阳光线 -->
  <g stroke="#FFE66D" stroke-width="2" opacity="0.3">
    <line x1="650" y1="50" x2="650" y2="20"/><line x1="670" y1="55" x2="690" y2="30"/>
    <line x1="680" y1="80" x2="710" y2="80"/><line x1="670" y1="105" x2="690" y2="130"/>
  </g>
  <!-- 草地 -->
  <ellipse cx="400" cy="350" rx="450" ry="80" fill="#4a7c59" opacity="0.4"/>
  <!-- 一家三口剪影 -->
  <g transform="translate(280, 160)" opacity="0.7">
    <!-- 爸爸 -->
    <circle cx="60" cy="30" r="22" fill="white"/>
    <path d="M 60 52 L 60 120" stroke="white" stroke-width="16" stroke-linecap="round"/>
    <path d="M 60 75 L 30 100" stroke="white" stroke-width="12" stroke-linecap="round"/>
    <!-- 妈妈 -->
    <circle cx="160" cy="35" r="20" fill="white"/>
    <path d="M 160 55 L 160 115" stroke="white" stroke-width="14" stroke-linecap="round"/>
    <path d="M 160 75 L 130 100" stroke="white" stroke-width="11" stroke-linecap="round"/>
    <!-- 宝宝（中间被抱着） -->
    <circle cx="110" cy="90" r="14" fill="white"/>
    <path d="M 110 104 L 110 130" stroke="white" stroke-width="10" stroke-linecap="round"/>
  </g>
  <!-- 花朵 -->
  <g opacity="0.5">
    <circle cx="150" cy="300" r="8" fill="white"/><circle cx="150" cy="300" r="4" fill="#FF6B6B"/>
    <circle cx="650" cy="310" r="6" fill="white"/><circle cx="650" cy="310" r="3" fill="#FFE66D"/>
    <circle cx="500" cy="290" r="7" fill="white"/><circle cx="500" cy="290" r="3.5" fill="#FF6B6B"/>
  </g>
  <g transform="translate(660, 40)"><rect width="90" height="32" rx="16" fill="white" opacity="0.85"/><text x="45" y="21" text-anchor="middle" font-size="14" font-weight="bold" fill="#fcb69f">2020</text></g>
  <text x="400" y="365" text-anchor="middle" font-size="16" font-weight="bold" fill="white" opacity="0.95">一家三口在阳光下的合影</text>
  <text x="400" y="385" text-anchor="middle" font-size="11" fill="white" opacity="0.6">Dragon_SZ Blog</text>
</svg>