<svg xmlns="http://www.w3.org/2000/svg" viewBox="0 0 800 400" width="100%" height="100%">
  <defs>
    <linearGradient id="bg" x1="0%" y1="0%" x2="100%" y2="100%">
      <stop offset="0%" style="stop-color:#4facfe;stop-opacity:1"/>
      <stop offset="100%" style="stop-color:#00f2fe;stop-opacity:1"/>
    </linearGradient>
  </defs>
  <rect width="800" height="400" fill="url(#bg)"/>
  <!-- 走廊透视 -->
  <polygon points="100,50 700,50 800,350 0,350" fill="white" opacity="0.1"/>
  <polygon points="200,80 600,80 680,350 120,350" fill="white" opacity="0.08"/>
  <!-- 走廊灯 -->
  <circle cx="300" cy="70" r="8" fill="white" opacity="0.6"/>
  <circle cx="400" cy="70" r="8" fill="white" opacity="0.6"/>
  <circle cx="500" cy="70" r="8" fill="white" opacity="0.6"/>
  <!-- 门 -->
  <rect x="180" y="100" width="60" height="120" rx="3" fill="white" opacity="0.15"/>
  <rect x="300" y="100" width="60" height="120" rx="3" fill="white" opacity="0.15"/>
  <rect x="440" y="100" width="60" height="120" rx="3" fill="white" opacity="0.15"/>
  <rect x="560" y="100" width="60" height="120" rx="3" fill="white" opacity="0.15"/>
  <!-- 等待的人影 -->
  <g transform="translate(350, 200)" opacity="0.5">
    <circle cx="20" cy="0" r="12" fill="white"/>
    <path d="M 20 12 L 20 50" stroke="white" stroke-width="8" stroke-linecap="round"/>
    <path d="M 20 25 L 5 40" stroke="white" stroke-width="6" stroke-linecap="round"/>
    <path d="M 20 25 L 35 40" stroke="white" stroke-width="6" stroke-linecap="round"/>
  </g>
  <!-- 十字标志 -->
  <g transform="translate(650, 80)" opacity="0.3">
    <rect x="10" y="0" width="10" height="30" fill="white"/>
    <rect x="0" y="10" width="30" height="10" fill="white"/>
  </g>
  <g transform="translate(660, 40)"><rect width="90" height="32" rx="16" fill="white" opacity="0.85"/><text x="45" y="21" text-anchor="middle" font-size="14" font-weight="bold" fill="#4facfe">2020</text></g>
  <text x="400" y="365" text-anchor="middle" font-size="16" font-weight="bold" fill="white" opacity="0.95">两人在医院走廊里紧张等待的场景</text>
  <text x="400" y="385" text-anchor="middle" font-size="11" fill="white" opacity="0.6">Dragon_SZ Blog</text>
</svg>