<svg xmlns="http://www.w3.org/2000/svg" viewBox="0 0 800 400" width="100%" height="100%">
  <defs>
    <linearGradient id="bg" x1="0%" y1="0%" x2="100%" y2="100%">
      <stop offset="0%" style="stop-color:#FF6B6B;stop-opacity:1"/>
      <stop offset="100%" style="stop-color:#FFE66D;stop-opacity:1"/>
    </linearGradient>
    <radialGradient id="glow" cx="50%" cy="50%" r="50%">
      <stop offset="0%" style="stop-color:white;stop-opacity:0.3"/>
      <stop offset="100%" style="stop-color:white;stop-opacity:0"/>
    </radialGradient>
  </defs>
  <rect width="800" height="400" fill="url(#bg)"/>
  <circle cx="400" cy="180" r="120" fill="url(#glow)"/>
  <!-- 大手 -->
  <g transform="translate(250, 140)">
    <ellipse cx="80" cy="60" rx="70" ry="50" fill="white" opacity="0.7"/>
    <ellipse cx="40" cy="30" rx="12" ry="25" fill="white" opacity="0.6" transform="rotate(-20,40,30)"/>
    <ellipse cx="65" cy="20" rx="11" ry="22" fill="white" opacity="0.6"/>
    <ellipse cx="90" cy="22" rx="11" ry="20" fill="white" opacity="0.6"/>
    <ellipse cx="115" cy="30" rx="10" ry="18" fill="white" opacity="0.6" transform="rotate(15,115,30)"/>
  </g>
  <!-- 小手 -->
  <g transform="translate(380, 160) scale(0.4)">
    <ellipse cx="50" cy="40" rx="40" ry="30" fill="white" opacity="0.85"/>
    <ellipse cx="25" cy="18" rx="7" ry="16" fill="white" opacity="0.8" transform="rotate(-15,25,18)"/>
    <ellipse cx="42" cy="12" rx="6" ry="14" fill="white" opacity="0.8"/>
    <ellipse cx="58" cy="14" rx="6" ry="13" fill="white" opacity="0.8"/>
    <ellipse cx="73" cy="20" rx="6" ry="12" fill="white" opacity="0.8" transform="rotate(10,73,20)"/>
  </g>
  <!-- 爱心点缀 -->
  <g opacity="0.4">
    <path d="M 180 100 A 8 8 0 0 0 164 100 C 164 108 180 116 180 116 C 180 116 196 108 196 100 A 8 8 0 0 0 180 100 Z" fill="white"/>
    <path d="M 600 120 A 6 6 0 0 0 588 120 C 588 126 600 132 600 132 C 600 132 612 126 612 120 A 6 6 0 0 0 600 120 Z" fill="white"/>
    <path d="M 650 250 A 5 5 0 0 0 640 250 C 640 255 650 260 650 260 C 650 260 660 255 660 250 A 5 5 0 0 0 650 250 Z" fill="white"/>
  </g>
  <g transform="translate(660, 40)"><rect width="90" height="32" rx="16" fill="white" opacity="0.85"/><text x="45" y="21" text-anchor="middle" font-size="14" font-weight="bold" fill="#FF6B6B">2020</text></g>
  <text x="400" y="365" text-anchor="middle" font-size="16" font-weight="bold" fill="white" opacity="0.95">新生婴儿的小手握着父亲的手指</text>
  <text x="400" y="385" text-anchor="middle" font-size="11" fill="white" opacity="0.6">Dragon_SZ Blog</text>
</svg>